<svg id="Layer_1" data-name="Layer 1" xmlns="http://www.w3.org/2000/svg" viewBox="0 0 323.14 141.07"><path d="M32.82,96.24c0-1.34-3-1.06-3-3.1a1.89,1.89,0,0,1,2.07-1.79,2.57,2.57,0,0,1,1.76.61l-.57.71a1.85,1.85,0,0,0-1.25-.49c-.67,0-1.07.38-1.07.9,0,1.35,3.05,1.09,3.05,3.11,0,1-.78,1.82-2.24,1.82a3.05,3.05,0,0,1-2.09-.72l.54-.76a2.53,2.53,0,0,0,1.65.65C32.42,97.18,32.82,96.77,32.82,96.24Z" style="fill:#231f20"/><path d="M36.85,91.44c1.37,0,2.18.54,2.18,1.85a1.65,1.65,0,0,1-1.43,1.77v0a1.9,1.9,0,0,1,.8.87l1.14,1.94H38.42l-1.15-2.07a.9.9,0,0,0-.88-.53H36v2.6h-.92V91.44ZM36,94.53h.75c.85,0,1.32-.35,1.32-1.16s-.48-1.12-1.36-1.12H36Z" style="fill:#231f20"/><path d="M45.44,91.44v6.47h-.93V95.05H41.6v2.86h-.92V91.44h.92v2.81h2.91V91.44Z" style="fill:#231f20"/><path d="M48.94,91.44c1.37,0,2.18.54,2.18,1.85a1.64,1.64,0,0,1-1.43,1.77v0a1.8,1.8,0,0,1,.8.87l1.14,1.94H50.51l-1.14-2.07a.9.9,0,0,0-.89-.53H48.1v2.6h-.92V91.44Zm-.84,3.09h.75c.85,0,1.32-.35,1.32-1.16s-.48-1.12-1.36-1.12H48.1Z" style="fill:#231f20"/><path d="M56.41,92.25h-1.7v-.81H59v.81H57.35v5.66h-.94Z" style="fill:#231f20"/><path d="M62.87,94.34v2.22c0,.4.13.65.45.65h.14v.66a.89.89,0,0,1-.39.09.9.9,0,0,1-.92-.6h0a1.73,1.73,0,0,1-1.45.65,1.38,1.38,0,0,1-1.48-1.36C59.18,95.5,60.27,95,62,95V94.5c0-.75-.37-1-1-1a1.16,1.16,0,0,0-1.07.6l-.66-.51a2.06,2.06,0,0,1,1.75-.87C62.2,92.75,62.87,93.22,62.87,94.34ZM62,95.68c-1.12-.06-1.92.22-1.92.89a.72.72,0,0,0,.8.72,1.37,1.37,0,0,0,1.12-.6Z" style="fill:#231f20"/><path d="M65.16,90.79a.6.6,0,0,1,.61.62.61.61,0,1,1-.61-.62Zm-.43,2h.92v5.07h-.92Z" style="fill:#231f20"/><path d="M68.24,90.91v5.68c0,.43.16.6.5.6a1,1,0,0,0,.36-.07v.75a1.93,1.93,0,0,1-.65.12,1,1,0,0,1-1.12-1.16V90.91Z" style="fill:#231f20"/><path d="M69.81,95.39c0-1.57.61-2.65,2.2-2.65s2.14,1.05,2.14,2.61S73.54,98,72,98,69.81,97,69.81,95.39ZM72,97.24c.88,0,1.2-.6,1.2-1.84s-.36-1.9-1.26-1.9-1.2.6-1.2,1.84S71.12,97.24,72,97.24Z" style="fill:#231f20"/><path d="M78.09,93.72a2.78,2.78,0,0,0-.57-.07,1.48,1.48,0,0,0-1.23.58v3.68h-.9V92.84h.7l.19.61h0a1.42,1.42,0,0,1,1.28-.71,2,2,0,0,1,.49.05Z" style="fill:#231f20"/><path d="M78.27,95.49v-.78h2.78v.78Z" style="fill:#231f20"/><path d="M87.17,92.73c1,0,1.56.56,1.56,1.68v3.5h-.92V94.59c0-.73-.35-1.07-.89-1.07a1.14,1.14,0,0,0-1.07.77v3.62h-.92V94.65c0-.73-.32-1.13-.92-1.13a1.1,1.1,0,0,0-1,.82v3.57h-.91V92.84h.72l.18.51h0a1.62,1.62,0,0,1,1.32-.62,1.27,1.27,0,0,1,1.32.77h0A1.64,1.64,0,0,1,87.17,92.73Z" style="fill:#231f20"/><path d="M93.61,94.34v2.22c0,.4.13.65.45.65h.14v.66a.89.89,0,0,1-.39.09.91.91,0,0,1-.92-.6h0A1.71,1.71,0,0,1,91.4,98a1.37,1.37,0,0,1-1.47-1.36C89.93,95.5,91,95,92.75,95V94.5c0-.75-.37-1-1-1a1.16,1.16,0,0,0-1.07.6l-.65-.51a2,2,0,0,1,1.74-.87C93,92.75,93.61,93.22,93.61,94.34Zm-.86,1.34c-1.12-.06-1.92.22-1.92.89a.73.73,0,0,0,.8.72,1.35,1.35,0,0,0,1.12-.6Z" style="fill:#231f20"/><path d="M98.2,90.91h.9v7h-.69l-.17-.49h0a1.62,1.62,0,0,1-1.3.59c-1.13,0-1.88-.74-1.88-2.4,0-1.93,1-2.78,2.36-2.78a3.45,3.45,0,0,1,.82.09Zm0,5.64V93.74a2.16,2.16,0,0,0-.74-.14c-1,0-1.51.52-1.51,1.91s.54,1.74,1.17,1.74A1.15,1.15,0,0,0,98.21,96.55Z" style="fill:#231f20"/><path d="M104.31,97.5a2.69,2.69,0,0,1-1.68.49c-1.5,0-2.29-.79-2.29-2.63s1-2.62,2.23-2.62a1.81,1.81,0,0,1,1.9,2,7.4,7.4,0,0,1,0,.88h-3.17c0,1.12.52,1.59,1.49,1.59a1.75,1.75,0,0,0,1.16-.42Zm-3-2.54h2.32a2.36,2.36,0,0,0,0-.25c0-.78-.34-1.22-1.08-1.22S101.31,93.92,101.26,95Z" style="fill:#231f20"/><path d="M108.65,91.44h.93v6.47h-.93Z" style="fill:#231f20"/><path d="M115.25,97.91h-.91v-3.3c0-.69-.34-1.09-1-1.09a1.22,1.22,0,0,0-1.16.82v3.57h-.92V92.84h.7l.19.51h0a1.94,1.94,0,0,1,1.43-.62,1.5,1.5,0,0,1,1.62,1.68Z" style="fill:#231f20"/><path d="M119.26,91.65a2.18,2.18,0,0,0-.66-.1c-.45,0-.62.22-.62.65v.64h1.25v.67H118v4.4h-.92v-4.4h-.81v-.67h.83v-.65c0-.8.49-1.4,1.56-1.4a2.54,2.54,0,0,1,.78.1Z" style="fill:#231f20"/><path d="M119.83,95.39c0-1.57.61-2.65,2.2-2.65s2.14,1.05,2.14,2.61S123.56,98,122,98,119.83,97,119.83,95.39Zm2.2,1.85c.88,0,1.2-.6,1.2-1.84s-.36-1.9-1.26-1.9-1.2.6-1.2,1.84S121.14,97.24,122,97.24Z" style="fill:#231f20"/><path d="M128.11,93.72a2.78,2.78,0,0,0-.57-.07,1.48,1.48,0,0,0-1.23.58v3.68h-.9V92.84h.7l.19.61h0a1.42,1.42,0,0,1,1.28-.71,2,2,0,0,1,.49.05Z" style="fill:#231f20"/><path d="M134.06,92.73c1,0,1.56.56,1.56,1.68v3.5h-.92V94.59c0-.73-.35-1.07-.89-1.07a1.15,1.15,0,0,0-1.07.77v3.62h-.92V94.65c0-.73-.32-1.13-.92-1.13a1.09,1.09,0,0,0-1,.82v3.57H129V92.84h.72l.18.51h0a1.62,1.62,0,0,1,1.32-.62,1.27,1.27,0,0,1,1.32.77h0A1.64,1.64,0,0,1,134.06,92.73Z" style="fill:#231f20"/><path d="M140.5,94.34v2.22c0,.4.13.65.45.65h.14v.66a.89.89,0,0,1-.39.09.92.92,0,0,1-.92-.6h0a1.7,1.7,0,0,1-1.44.65,1.37,1.37,0,0,1-1.48-1.36c0-1.15,1.09-1.69,2.82-1.64V94.5c0-.75-.37-1-1-1a1.17,1.17,0,0,0-1.07.6l-.65-.51a2,2,0,0,1,1.74-.87C139.84,92.75,140.5,93.22,140.5,94.34Zm-.86,1.34c-1.11-.06-1.92.22-1.92.89a.73.73,0,0,0,.81.72,1.35,1.35,0,0,0,1.11-.6Z" style="fill:#231f20"/><path d="M142.33,96.48V93.56h-.72V93l.72-.18.3-1.28h.6v1.32h1.36v.72h-1.36v2.9c0,.5.26.72.68.72a1.31,1.31,0,0,0,.76-.19l.24.71a2.23,2.23,0,0,1-1.22.26C142.84,98,142.33,97.52,142.33,96.48Z" style="fill:#231f20"/><path d="M146.42,90.79a.6.6,0,0,1,.61.62.61.61,0,0,1-1.21,0A.6.6,0,0,1,146.42,90.79Zm-.42,2h.91v5.07H146Z" style="fill:#231f20"/><path d="M148.29,95.39c0-1.57.6-2.65,2.19-2.65s2.14,1.05,2.14,2.61S152,98,150.43,98,148.29,97,148.29,95.39Zm2.19,1.85c.89,0,1.2-.6,1.2-1.84s-.36-1.9-1.25-1.9-1.2.6-1.2,1.84S149.6,97.24,150.48,97.24Z" style="fill:#231f20"/><path d="M157.83,97.91h-.91v-3.3c0-.69-.34-1.09-1-1.09a1.22,1.22,0,0,0-1.16.82v3.57h-.92V92.84h.7l.19.51h0a1.94,1.94,0,0,1,1.43-.62,1.5,1.5,0,0,1,1.62,1.68Z" style="fill:#231f20"/><path d="M165.41,94.34v2.22c0,.4.13.65.45.65H166v.66a.89.89,0,0,1-.39.09.91.91,0,0,1-.92-.6h0a1.71,1.71,0,0,1-1.45.65,1.37,1.37,0,0,1-1.47-1.36c0-1.15,1.09-1.69,2.82-1.64V94.5c0-.75-.37-1-1-1a1.16,1.16,0,0,0-1.07.6l-.65-.51a2,2,0,0,1,1.74-.87C164.75,92.75,165.41,93.22,165.41,94.34Zm-.86,1.34c-1.12-.06-1.92.22-1.92.89a.73.73,0,0,0,.8.72,1.35,1.35,0,0,0,1.12-.6Z" style="fill:#231f20"/><path d="M171.07,97.91h-.91v-3.3c0-.69-.35-1.09-1-1.09a1.23,1.23,0,0,0-1.17.82v3.57h-.91V92.84h.7l.19.51h0a1.92,1.92,0,0,1,1.43-.62,1.5,1.5,0,0,1,1.62,1.68Z" style="fill:#231f20"/><path d="M175.45,90.91h.91v7h-.69l-.18-.49h0a1.59,1.59,0,0,1-1.3.59c-1.12,0-1.87-.74-1.87-2.4,0-1.93,1-2.78,2.35-2.78a3.45,3.45,0,0,1,.82.09Zm0,5.64V93.74a2.06,2.06,0,0,0-.73-.14c-1,0-1.52.52-1.52,1.91s.55,1.74,1.17,1.74A1.13,1.13,0,0,0,175.46,96.55Z" style="fill:#231f20"/><path d="M181.62,92.25h-1.7v-.81h4.32v.81h-1.69v5.66h-.93Z" style="fill:#231f20"/><path d="M187.82,93.72a2.87,2.87,0,0,0-.58-.07,1.46,1.46,0,0,0-1.22.58v3.68h-.91V92.84h.7l.2.61h0a1.45,1.45,0,0,1,1.29-.71,2,2,0,0,1,.49.05Z" style="fill:#231f20"/><path d="M191.88,94.34v2.22c0,.4.13.65.45.65h.14v.66a.89.89,0,0,1-.39.09.91.91,0,0,1-.92-.6h0a1.73,1.73,0,0,1-1.45.65,1.37,1.37,0,0,1-1.47-1.36c0-1.15,1.09-1.69,2.82-1.64V94.5c0-.75-.37-1-1-1a1.16,1.16,0,0,0-1.07.6l-.65-.51a2,2,0,0,1,1.74-.87C191.21,92.75,191.88,93.22,191.88,94.34ZM191,95.68c-1.12-.06-1.92.22-1.92.89a.73.73,0,0,0,.8.72,1.35,1.35,0,0,0,1.12-.6Z" style="fill:#231f20"/><path d="M194.17,90.79a.6.6,0,0,1,.61.62.61.61,0,0,1-1.21,0A.6.6,0,0,1,194.17,90.79Zm-.42,2h.91v5.07h-.91Z" style="fill:#231f20"/><path d="M200.28,97.91h-.91v-3.3c0-.69-.34-1.09-1-1.09a1.22,1.22,0,0,0-1.16.82v3.57h-.92V92.84h.7l.19.51h0a1.94,1.94,0,0,1,1.43-.62,1.5,1.5,0,0,1,1.62,1.68Z" style="fill:#231f20"/><path d="M202.37,90.79a.6.6,0,0,1,.61.62.61.61,0,0,1-1.21,0A.6.6,0,0,1,202.37,90.79Zm-.43,2h.92v5.07h-.92Z" style="fill:#231f20"/><path d="M208.48,97.91h-.91v-3.3c0-.69-.35-1.09-1-1.09a1.23,1.23,0,0,0-1.17.82v3.57h-.91V92.84h.7l.19.51h0a1.91,1.91,0,0,1,1.42-.62,1.5,1.5,0,0,1,1.63,1.68Z" style="fill:#231f20"/><path d="M213.74,97.88a1.91,1.91,0,0,1-2.16,2,2.35,2.35,0,0,1-1.78-.58l.53-.71a1.71,1.71,0,0,0,1.32.51c.85,0,1.2-.38,1.2-1.24v-.41h0a1.8,1.8,0,0,1-1.16.37c-1.06,0-2-.61-2-2.37a2.37,2.37,0,0,1,2.47-2.68,3.66,3.66,0,0,1,1.58.28Zm-1.65-4.33c-.9,0-1.48.6-1.48,1.83s.58,1.68,1.26,1.68a1.23,1.23,0,0,0,1-.43V93.68A1.9,1.9,0,0,0,212.09,93.55Z" style="fill:#231f20"/><path d="M218.09,96.48V93.56h-.72V93l.72-.18.3-1.28H219v1.32h1.35v.72H219v2.9c0,.5.25.72.67.72a1.31,1.31,0,0,0,.76-.19l.24.71a2.23,2.23,0,0,1-1.22.26C218.6,98,218.09,97.52,218.09,96.48Z" style="fill:#231f20"/><path d="M221.3,95.39c0-1.57.61-2.65,2.2-2.65s2.14,1.05,2.14,2.61S225,98,223.44,98,221.3,97,221.3,95.39Zm2.2,1.85c.89,0,1.2-.6,1.2-1.84s-.36-1.9-1.26-1.9-1.19.6-1.19,1.84S222.61,97.24,223.5,97.24Z" style="fill:#231f20"/><path d="M232.08,91.35a2.6,2.6,0,0,1,1.81.6l-.6.7a1.71,1.71,0,0,0-1.29-.48c-1.06,0-1.68.78-1.68,2.49s.6,2.51,1.77,2.51a1.64,1.64,0,0,0,1.22-.43l.52.66A2.55,2.55,0,0,1,232,98c-1.84,0-2.61-1.31-2.61-3.28S230.31,91.35,232.08,91.35Z" style="fill:#231f20"/><path d="M234.63,95.39c0-1.57.61-2.65,2.19-2.65S239,93.79,239,95.35s-.6,2.65-2.19,2.65S234.63,97,234.63,95.39Zm2.19,1.85c.89,0,1.2-.6,1.2-1.84s-.36-1.9-1.25-1.9-1.2.6-1.2,1.84S235.94,97.24,236.82,97.24Z" style="fill:#231f20"/><path d="M244.17,97.91h-.91v-3.3c0-.69-.34-1.09-1-1.09a1.22,1.22,0,0,0-1.16.82v3.57h-.92V92.84h.7l.19.51h0a1.89,1.89,0,0,1,1.42-.62,1.5,1.5,0,0,1,1.62,1.68Z" style="fill:#231f20"/><path d="M245.8,96.48V93.56h-.72V93l.72-.18.29-1.28h.61v1.32h1.36v.72H246.7v2.9c0,.5.26.72.68.72a1.26,1.26,0,0,0,.75-.19l.24.71a2.18,2.18,0,0,1-1.22.26C246.3,98,245.8,97.52,245.8,96.48Z" style="fill:#231f20"/><path d="M252,93.72a2.78,2.78,0,0,0-.57-.07,1.48,1.48,0,0,0-1.23.58v3.68h-.9V92.84h.7l.19.61h0a1.42,1.42,0,0,1,1.28-.71,2,2,0,0,1,.49.05Z" style="fill:#231f20"/><path d="M253.43,90.79a.6.6,0,0,1,.61.62.61.61,0,0,1-1.21,0A.6.6,0,0,1,253.43,90.79Zm-.42,2h.91v5.07H253Z" style="fill:#231f20"/><path d="M255.57,90.91h.91v2.24h0a1.85,1.85,0,0,1,1.15-.36c1.09,0,2,.66,2,2.45,0,1.61-.84,2.77-2.53,2.77a3.45,3.45,0,0,1-1.53-.29Zm3.14,4.43c0-1.38-.6-1.77-1.27-1.77a1.18,1.18,0,0,0-.95.43v3.12a2.08,2.08,0,0,0,.72.12C258.11,97.24,258.71,96.62,258.71,95.34Z" style="fill:#231f20"/><path d="M260.84,92.84h.91v3.3c0,.75.33,1.12,1,1.12a1.08,1.08,0,0,0,1.16-1.05V92.84h.91v5.07h-.74l-.15-.5h0a1.75,1.75,0,0,1-1.42.6c-1.05,0-1.61-.55-1.63-1.72Z" style="fill:#231f20"/><path d="M266.47,96.48V93.56h-.72V93l.72-.18.29-1.28h.61v1.32h1.36v.72h-1.36v2.9c0,.5.26.72.68.72a1.26,1.26,0,0,0,.75-.19l.24.71a2.16,2.16,0,0,1-1.21.26C267,98,266.47,97.52,266.47,96.48Z" style="fill:#231f20"/><path d="M273.65,97.5A2.69,2.69,0,0,1,272,98c-1.49,0-2.29-.79-2.29-2.63s1-2.62,2.23-2.62a1.81,1.81,0,0,1,1.9,2,7.4,7.4,0,0,1-.05.88h-3.17c.05,1.12.52,1.59,1.49,1.59a1.75,1.75,0,0,0,1.16-.42Zm-3-2.54h2.32a2.36,2.36,0,0,0,0-.25c0-.78-.34-1.22-1.08-1.22S270.65,93.92,270.6,95Z" style="fill:#231f20"/><path d="M277.93,96.48V93.56h-.71V93l.71-.18.3-1.28h.61v1.32h1.36v.72h-1.36v2.9c0,.5.26.72.67.72a1.31,1.31,0,0,0,.76-.19l.24.71a2.21,2.21,0,0,1-1.22.26C278.44,98,277.93,97.52,277.93,96.48Z" style="fill:#231f20"/><path d="M281.15,95.39c0-1.57.61-2.65,2.2-2.65s2.14,1.05,2.14,2.61-.61,2.65-2.2,2.65S281.15,97,281.15,95.39Zm2.2,1.85c.88,0,1.19-.6,1.19-1.84s-.35-1.9-1.25-1.9-1.2.6-1.2,1.84S282.46,97.24,283.35,97.24Z" style="fill:#231f20"/><path d="M14.93,109.93c-1.56,0-2.51-.9-2.51-3.3s1-3.36,2.59-3.36,2.52.91,2.52,3.3S16.5,109.93,14.93,109.93Zm.07-.82c1,0,1.57-.6,1.57-2.48S16,104.08,15,104.08s-1.58.58-1.58,2.48S14,109.11,15,109.11Z" style="fill:#231f20"/><path d="M20.78,104.66a1.93,1.93,0,0,1,1.55.6l-.61.63a1.26,1.26,0,0,0-1-.44c-.75,0-1.25.49-1.25,1.82s.46,1.87,1.25,1.87a1.18,1.18,0,0,0,.95-.43l.57.59a1.91,1.91,0,0,1-1.61.62c-1.28,0-2.1-.73-2.1-2.56S19.5,104.66,20.78,104.66Z" style="fill:#231f20"/><path d="M25.28,104.66a1.92,1.92,0,0,1,1.54.6l-.61.63a1.24,1.24,0,0,0-1-.44c-.74,0-1.24.49-1.24,1.82s.46,1.87,1.24,1.87a1.16,1.16,0,0,0,.95-.43l.58.59a1.93,1.93,0,0,1-1.61.62c-1.28,0-2.1-.73-2.1-2.56S24,104.66,25.28,104.66Z" style="fill:#231f20"/><path d="M27.81,104.76h.91v3.3c0,.75.34,1.12,1,1.12a1.08,1.08,0,0,0,1.16-1v-3.38h.92v5.07h-.75l-.15-.5h0a1.79,1.79,0,0,1-1.43.61c-1.05,0-1.61-.56-1.63-1.73Z" style="fill:#231f20"/><path d="M35,109.84a4.07,4.07,0,0,1-.79-.07v1.85H33.3v-6.86H34l.19.49h0a1.56,1.56,0,0,1,1.29-.59c1.15,0,1.88.8,1.88,2.42C37.38,108.89,36.4,109.84,35,109.84Zm-.07-.77c1,0,1.52-.58,1.52-1.89s-.58-1.75-1.21-1.75a1.19,1.19,0,0,0-1,.61V109A2.42,2.42,0,0,0,34.93,109.07Z" style="fill:#231f20"/><path d="M42,106.26v2.22c0,.4.13.65.45.65h.14v.66a.89.89,0,0,1-.39.09.91.91,0,0,1-.92-.6h0a1.73,1.73,0,0,1-1.45.65,1.37,1.37,0,0,1-1.47-1.36c0-1.15,1.08-1.69,2.82-1.64v-.51c0-.75-.37-1-1-1a1.16,1.16,0,0,0-1.07.6l-.66-.51a2.06,2.06,0,0,1,1.75-.87C41.35,104.67,42,105.14,42,106.26Zm-.86,1.34c-1.12-.06-1.92.22-1.92.89a.73.73,0,0,0,.8.72,1.35,1.35,0,0,0,1.12-.6Z" style="fill:#231f20"/><path d="M43.85,108.4v-2.92h-.72v-.58l.72-.18.29-1.28h.61v1.32h1.36v.72H44.75v2.9c0,.5.26.72.68.72a1.26,1.26,0,0,0,.75-.19l.24.71a2.18,2.18,0,0,1-1.22.26C44.35,109.88,43.85,109.44,43.85,108.4Z" style="fill:#231f20"/><path d="M47.94,102.71a.6.6,0,0,1,.61.62.61.61,0,1,1-.61-.62Zm-.43,2.05h.92v5.07h-.92Z" style="fill:#231f20"/><path d="M49.8,107.31c0-1.57.61-2.65,2.2-2.65s2.14,1,2.14,2.61-.61,2.65-2.2,2.65S49.8,108.87,49.8,107.31Zm2.2,1.85c.88,0,1.2-.6,1.2-1.84s-.36-1.9-1.26-1.9-1.2.6-1.2,1.84S51.11,109.16,52,109.16Z" style="fill:#231f20"/><path d="M59.35,109.83h-.92v-3.3c0-.69-.34-1.09-1-1.09a1.23,1.23,0,0,0-1.17.82v3.57h-.91v-5.07h.7l.18.51h0a1.91,1.91,0,0,1,1.42-.62,1.5,1.5,0,0,1,1.63,1.68Z" style="fill:#231f20"/><path d="M64.23,106.26v2.22c0,.4.13.65.45.65h.14v.66a.89.89,0,0,1-.39.09.92.92,0,0,1-.92-.6h0a1.7,1.7,0,0,1-1.44.65,1.37,1.37,0,0,1-1.48-1.36c0-1.15,1.09-1.69,2.82-1.64v-.51c0-.75-.37-1-1-1a1.17,1.17,0,0,0-1.07.6l-.65-.51a2,2,0,0,1,1.74-.87C63.57,104.67,64.23,105.14,64.23,106.26Zm-.86,1.34c-1.11-.06-1.92.22-1.92.89a.73.73,0,0,0,.81.72,1.35,1.35,0,0,0,1.11-.6Z" style="fill:#231f20"/><path d="M66.86,102.83v5.68c0,.43.16.6.5.6a.94.94,0,0,0,.36-.07v.75a1.82,1.82,0,0,1-.64.12A1,1,0,0,1,66,108.75v-5.92Z" style="fill:#231f20"/><path d="M76.28,103.36v6.47h-.93V107H72.44v2.86h-.92v-6.47h.92v2.81h2.91v-2.81Z" style="fill:#231f20"/><path d="M81.6,109.42a2.62,2.62,0,0,1-1.68.49c-1.5,0-2.29-.79-2.29-2.63s1-2.62,2.22-2.62a1.8,1.8,0,0,1,1.9,2,7.17,7.17,0,0,1,0,.88H78.53c.06,1.12.53,1.59,1.5,1.59a1.81,1.81,0,0,0,1.16-.41Zm-3-2.54h2.32a2.36,2.36,0,0,0,0-.25c0-.78-.34-1.22-1.08-1.22S78.6,105.84,78.55,106.88Z" style="fill:#231f20"/><path d="M86.44,106.26v2.22c0,.4.13.65.46.65H87v.66a.89.89,0,0,1-.39.09.9.9,0,0,1-.92-.6h0a1.73,1.73,0,0,1-1.45.65,1.38,1.38,0,0,1-1.48-1.36c0-1.15,1.09-1.69,2.83-1.64v-.51c0-.75-.37-1-1-1a1.14,1.14,0,0,0-1.07.6l-.66-.51a2,2,0,0,1,1.75-.87C85.78,104.67,86.44,105.14,86.44,106.26Zm-.85,1.34c-1.12-.06-1.92.22-1.92.89a.72.72,0,0,0,.8.72,1.37,1.37,0,0,0,1.12-.6Z" style="fill:#231f20"/><path d="M89.08,102.83v5.68c0,.43.15.6.5.6a1,1,0,0,0,.36-.07v.75a1.93,1.93,0,0,1-.65.12,1,1,0,0,1-1.12-1.16v-5.92Z" style="fill:#231f20"/><path d="M91.06,108.4v-2.92h-.72v-.58l.72-.18.3-1.28H92v1.32h1.35v.72H92v2.9c0,.5.25.72.67.72a1.31,1.31,0,0,0,.76-.19l.24.71a2.23,2.23,0,0,1-1.22.26C91.57,109.88,91.06,109.44,91.06,108.4Z" style="fill:#231f20"/><path d="M98.52,106.34v3.49h-.91v-3.32a.9.9,0,0,0-.94-1,1.3,1.3,0,0,0-1.2.79v3.55h-.92v-7h.92v2.47h0a1.91,1.91,0,0,1,1.43-.62A1.49,1.49,0,0,1,98.52,106.34Z" style="fill:#231f20"/><path d="M106.1,106.26v2.22c0,.4.13.65.45.65h.14v.66a.89.89,0,0,1-.39.09.92.92,0,0,1-.92-.6h0a1.71,1.71,0,0,1-1.45.65,1.37,1.37,0,0,1-1.47-1.36c0-1.15,1.09-1.69,2.82-1.64v-.51c0-.75-.37-1-1-1a1.16,1.16,0,0,0-1.07.6l-.65-.51a2,2,0,0,1,1.74-.87C105.44,104.67,106.1,105.14,106.1,106.26Zm-.86,1.34c-1.11-.06-1.92.22-1.92.89a.73.73,0,0,0,.81.72,1.35,1.35,0,0,0,1.11-.6Z" style="fill:#231f20"/><path d="M111.76,109.83h-.91v-3.3c0-.69-.35-1.09-1-1.09a1.23,1.23,0,0,0-1.17.82v3.57h-.91v-5.07h.7l.19.51h0a1.92,1.92,0,0,1,1.43-.62,1.5,1.5,0,0,1,1.62,1.68Z" style="fill:#231f20"/><path d="M116.15,102.83h.9v7h-.69l-.18-.49h0a1.62,1.62,0,0,1-1.31.59c-1.12,0-1.87-.74-1.87-2.4,0-1.93,1-2.78,2.35-2.78a3.55,3.55,0,0,1,.83.09Zm0,5.64v-2.81a2.06,2.06,0,0,0-.73-.14c-1,0-1.52.52-1.52,1.91s.55,1.74,1.18,1.74A1.13,1.13,0,0,0,116.15,108.47Z" style="fill:#231f20"/><path d="M121.08,106.13a1.58,1.58,0,0,1,1.78-1.46,2.17,2.17,0,0,1,1.59.59l-.6.61a1.42,1.42,0,0,0-1-.43c-.57,0-.85.3-.85.65,0,1,2.52.62,2.52,2.34,0,.69-.57,1.49-1.87,1.49a2.62,2.62,0,0,1-1.88-.68l.56-.66a1.94,1.94,0,0,0,1.36.58c.63,0,.92-.31.92-.69C123.59,107.44,121.08,107.84,121.08,106.13Z" style="fill:#231f20"/><path d="M129.14,106.26v2.22c0,.4.13.65.46.65h.14v.66a.89.89,0,0,1-.39.09.9.9,0,0,1-.92-.6h0a1.73,1.73,0,0,1-1.45.65,1.38,1.38,0,0,1-1.48-1.36c0-1.15,1.09-1.69,2.83-1.64v-.51c0-.75-.37-1-1-1a1.14,1.14,0,0,0-1.07.6l-.66-.51a2,2,0,0,1,1.75-.87C128.48,104.67,129.14,105.14,129.14,106.26Zm-.85,1.34c-1.12-.06-1.92.22-1.92.89a.72.72,0,0,0,.8.72,1.37,1.37,0,0,0,1.12-.6Z" style="fill:#231f20"/><path d="M133.36,103.57a2.18,2.18,0,0,0-.66-.1c-.45,0-.62.23-.62.65v.64h1.25v.67h-1.27v4.4h-.91v-4.4h-.81v-.67h.83v-.65c0-.8.49-1.4,1.56-1.4a2.54,2.54,0,0,1,.78.1Z" style="fill:#231f20"/><path d="M137.91,109.42a2.62,2.62,0,0,1-1.68.49c-1.5,0-2.29-.79-2.29-2.63s1-2.62,2.22-2.62a1.8,1.8,0,0,1,1.9,2c0,.25,0,.54,0,.88h-3.18c.06,1.12.53,1.59,1.5,1.59a1.83,1.83,0,0,0,1.16-.41Zm-3-2.54h2.32a2.36,2.36,0,0,0,0-.25c0-.78-.34-1.22-1.08-1.22S134.91,105.84,134.86,106.88Z" style="fill:#231f20"/><path d="M139.5,108.4v-2.92h-.72v-.58l.72-.18.29-1.28h.61v1.32h1.36v.72H140.4v2.9c0,.5.26.72.67.72a1.31,1.31,0,0,0,.76-.19l.24.71a2.18,2.18,0,0,1-1.22.26C140,109.88,139.5,109.44,139.5,108.4Z" style="fill:#231f20"/><path d="M142.59,110.88a1.53,1.53,0,0,0,.5.1c.58,0,.91-.32,1.08-1l-1.86-5.19h1l.75,2.26c.26.81.42,1.38.53,1.83h0a14.33,14.33,0,0,1,.47-1.83l.7-2.26h.94l-1.76,5.4c-.31.94-.81,1.61-1.9,1.61a1.75,1.75,0,0,1-.66-.11Z" style="fill:#231f20"/><path d="M152.3,104.66a1.92,1.92,0,0,1,1.54.6l-.61.63a1.24,1.24,0,0,0-1-.44c-.74,0-1.24.49-1.24,1.82s.46,1.87,1.24,1.87a1.16,1.16,0,0,0,.95-.43l.58.59a1.93,1.93,0,0,1-1.61.62c-1.28,0-2.1-.73-2.1-2.56S151,104.66,152.3,104.66Z" style="fill:#231f20"/><path d="M154.54,107.31c0-1.57.61-2.65,2.2-2.65s2.14,1,2.14,2.61-.61,2.65-2.19,2.65S154.54,108.87,154.54,107.31Zm2.2,1.85c.89,0,1.2-.6,1.2-1.84s-.36-1.9-1.25-1.9-1.2.6-1.2,1.84S155.85,109.16,156.74,109.16Z" style="fill:#231f20"/><path d="M164.09,109.83h-.91v-3.3c0-.69-.35-1.09-1-1.09a1.23,1.23,0,0,0-1.17.82v3.57h-.91v-5.07h.7l.19.51h0a1.91,1.91,0,0,1,1.42-.62,1.5,1.5,0,0,1,1.63,1.68Z" style="fill:#231f20"/><path d="M168.47,102.83h.91v7h-.69l-.18-.49h0a1.59,1.59,0,0,1-1.3.59c-1.12,0-1.87-.74-1.87-2.4,0-1.93,1-2.78,2.35-2.78a3.45,3.45,0,0,1,.82.09Zm0,5.64v-2.81a2.06,2.06,0,0,0-.73-.14c-1,0-1.52.52-1.52,1.91s.55,1.74,1.17,1.74A1.13,1.13,0,0,0,168.48,108.47Z" style="fill:#231f20"/><path d="M171.49,102.71a.59.59,0,0,1,.61.62.58.58,0,0,1-.61.59.59.59,0,0,1-.6-.59A.6.6,0,0,1,171.49,102.71Zm-.42,2.05H172v5.07h-.91Z" style="fill:#231f20"/><path d="M173.77,108.4v-2.92h-.71v-.58l.71-.18.3-1.28h.61v1.32H176v.72h-1.36v2.9c0,.5.26.72.67.72a1.31,1.31,0,0,0,.76-.19l.24.71a2.21,2.21,0,0,1-1.22.26C174.28,109.88,173.77,109.44,173.77,108.4Z" style="fill:#231f20"/><path d="M177.86,102.71a.59.59,0,0,1,.61.62.58.58,0,0,1-.61.59.59.59,0,0,1-.6-.59A.6.6,0,0,1,177.86,102.71Zm-.42,2.05h.91v5.07h-.91Z" style="fill:#231f20"/><path d="M179.73,107.31c0-1.57.61-2.65,2.2-2.65s2.14,1,2.14,2.61-.61,2.65-2.2,2.65S179.73,108.87,179.73,107.31Zm2.2,1.85c.88,0,1.2-.6,1.2-1.84s-.36-1.9-1.26-1.9-1.2.6-1.2,1.84S181,109.16,181.93,109.16Z" style="fill:#231f20"/><path d="M189.28,109.83h-.92v-3.3c0-.69-.34-1.09-1-1.09a1.23,1.23,0,0,0-1.16.82v3.57h-.91v-5.07h.7l.18.51h0a1.89,1.89,0,0,1,1.42-.62,1.5,1.5,0,0,1,1.63,1.68Z" style="fill:#231f20"/><path d="M190.58,106.13a1.58,1.58,0,0,1,1.78-1.46,2.17,2.17,0,0,1,1.59.59l-.59.61a1.46,1.46,0,0,0-1-.43c-.57,0-.85.3-.85.65,0,1,2.52.62,2.52,2.34,0,.69-.57,1.49-1.87,1.49a2.64,2.64,0,0,1-1.88-.68l.56-.66a1.94,1.94,0,0,0,1.36.58c.63,0,.92-.31.92-.69C193.09,107.44,190.58,107.84,190.58,106.13Z" style="fill:#231f20"/><path d="M197.67,107.31c0-1.57.61-2.65,2.2-2.65s2.14,1,2.14,2.61-.61,2.65-2.2,2.65S197.67,108.87,197.67,107.31Zm2.2,1.85c.88,0,1.2-.6,1.2-1.84s-.36-1.9-1.26-1.9-1.2.6-1.2,1.84S199,109.16,199.87,109.16Z" style="fill:#231f20"/><path d="M205.72,103.57a2.18,2.18,0,0,0-.66-.1c-.45,0-.62.23-.62.65v.64h1.25v.67h-1.26v4.4h-.92v-4.4h-.81v-.67h.83v-.65c0-.8.49-1.4,1.56-1.4a2.66,2.66,0,0,1,.79.1Z" style="fill:#231f20"/><path d="M211.87,103.57a2.18,2.18,0,0,0-.66-.1c-.45,0-.62.23-.62.65v.64h1.25v.67h-1.26v4.4h-.92v-4.4h-.81v-.67h.83v-.65c0-.8.49-1.4,1.56-1.4a2.54,2.54,0,0,1,.78.1Z" style="fill:#231f20"/><path d="M216.2,106.26v2.22c0,.4.13.65.45.65h.14v.66a.89.89,0,0,1-.39.09.91.91,0,0,1-.92-.6h0a1.73,1.73,0,0,1-1.45.65,1.38,1.38,0,0,1-1.48-1.36c0-1.15,1.09-1.69,2.83-1.64v-.51c0-.75-.37-1-1-1a1.16,1.16,0,0,0-1.07.6l-.66-.51a2.06,2.06,0,0,1,1.75-.87C215.53,104.67,216.2,105.14,216.2,106.26Zm-.86,1.34c-1.12-.06-1.92.22-1.92.89a.72.72,0,0,0,.8.72,1.35,1.35,0,0,0,1.12-.6Z" style="fill:#231f20"/><path d="M219.83,104.66a1.92,1.92,0,0,1,1.54.6l-.61.63a1.26,1.26,0,0,0-1-.44c-.75,0-1.25.49-1.25,1.82s.46,1.87,1.25,1.87a1.18,1.18,0,0,0,.95-.43l.57.59a1.91,1.91,0,0,1-1.6.62c-1.29,0-2.11-.73-2.11-2.56S218.54,104.66,219.83,104.66Z" style="fill:#231f20"/><path d="M222.52,108.4v-2.92h-.72v-.58l.72-.18.3-1.28h.61v1.32h1.35v.72h-1.35v2.9c0,.5.25.72.67.72a1.31,1.31,0,0,0,.76-.19l.24.71a2.23,2.23,0,0,1-1.22.26C223,109.88,222.52,109.44,222.52,108.4Z" style="fill:#231f20"/><path d="M225.73,107.31c0-1.57.61-2.65,2.2-2.65s2.14,1,2.14,2.61-.61,2.65-2.19,2.65S225.73,108.87,225.73,107.31Zm2.2,1.85c.89,0,1.2-.6,1.2-1.84s-.36-1.9-1.25-1.9-1.2.6-1.2,1.84S227.05,109.16,227.93,109.16Z" style="fill:#231f20"/><path d="M234,105.64a2.87,2.87,0,0,0-.58-.07,1.45,1.45,0,0,0-1.22.58v3.68h-.91v-5.07h.7l.2.62h0a1.42,1.42,0,0,1,1.29-.72,2,2,0,0,1,.49,0Z" style="fill:#231f20"/><path d="M234.46,110.88a1.53,1.53,0,0,0,.5.1c.58,0,.91-.32,1.08-1l-1.86-5.19h1l.75,2.26c.26.81.42,1.38.53,1.83h0A14.33,14.33,0,0,1,237,107l.7-2.26h.94l-1.76,5.4a1.91,1.91,0,0,1-1.9,1.61,1.75,1.75,0,0,1-.66-.11Z" style="fill:#231f20"/><path d="M245.1,105.78l-1,4H243l-1.34-5.07h.93l.66,2.66c.13.54.24,1,.34,1.62h0a14.81,14.81,0,0,1,.31-1.48l.72-2.8h1.06l.67,2.78a13.71,13.71,0,0,1,.31,1.5h0c.11-.55.23-1.1.37-1.64l.67-2.64h.84l-1.33,5.07h-1.17l-.93-4Z" style="fill:#231f20"/><path d="M249.19,107.31c0-1.57.6-2.65,2.19-2.65s2.14,1,2.14,2.61-.61,2.65-2.19,2.65S249.19,108.87,249.19,107.31Zm2.19,1.85c.89,0,1.2-.6,1.2-1.84s-.36-1.9-1.25-1.9-1.2.6-1.2,1.84S250.5,109.16,251.38,109.16Z" style="fill:#231f20"/><path d="M257.47,105.64a2.87,2.87,0,0,0-.58-.07,1.45,1.45,0,0,0-1.22.58v3.68h-.91v-5.07h.7l.2.62h0a1.44,1.44,0,0,1,1.29-.72,2,2,0,0,1,.49,0Z" style="fill:#231f20"/><path d="M259.22,109.83h-.91v-7h.91Zm.1-2.66,1.7-2.41h1.1l-1.76,2.39v0l1.84,2.65h-1.12l-1.76-2.63Z" style="fill:#231f20"/><path d="M266.75,109.42a2.6,2.6,0,0,1-1.68.49c-1.49,0-2.29-.79-2.29-2.63s1-2.62,2.23-2.62a1.8,1.8,0,0,1,1.9,2,7.4,7.4,0,0,1-.05.88h-3.17c.05,1.12.53,1.59,1.49,1.59a1.84,1.84,0,0,0,1.17-.41Zm-3-2.54H266a2.36,2.36,0,0,0,0-.25c0-.78-.34-1.22-1.08-1.22S263.75,105.84,263.71,106.88Z" style="fill:#231f20"/><path d="M270.91,105.64a2.86,2.86,0,0,0-.57-.07,1.48,1.48,0,0,0-1.23.58v3.68h-.91v-5.07h.71l.19.62h0a1.41,1.41,0,0,1,1.28-.72,2,2,0,0,1,.49,0Z" style="fill:#231f20"/><path d="M271.51,106.13a1.58,1.58,0,0,1,1.78-1.46,2.15,2.15,0,0,1,1.59.59l-.59.61a1.44,1.44,0,0,0-1-.43c-.57,0-.85.3-.85.65,0,1,2.52.62,2.52,2.34,0,.69-.57,1.49-1.87,1.49a2.59,2.59,0,0,1-1.87-.68l.55-.66a2,2,0,0,0,1.37.58c.62,0,.91-.31.91-.69C274,107.44,271.51,107.84,271.51,106.13Z" style="fill:#231f20"/><path d="M279.48,102.71a.6.6,0,0,1,.61.62.61.61,0,0,1-1.21,0A.6.6,0,0,1,279.48,102.71Zm-.43,2.05H280v5.07h-.92Z" style="fill:#231f20"/><path d="M285.59,109.83h-.92v-3.3c0-.69-.34-1.09-1-1.09a1.23,1.23,0,0,0-1.17.82v3.57h-.91v-5.07h.7l.19.51h0a1.91,1.91,0,0,1,1.42-.62,1.5,1.5,0,0,1,1.63,1.68Z" style="fill:#231f20"/><path d="M289.91,108.4v-2.92h-.72v-.58l.72-.18.29-1.28h.61v1.32h1.36v.72h-1.36v2.9c0,.5.26.72.68.72a1.26,1.26,0,0,0,.75-.19l.24.71a2.16,2.16,0,0,1-1.21.26C290.42,109.88,289.91,109.44,289.91,108.4Z" style="fill:#231f20"/><path d="M297.37,106.34v3.49h-.92v-3.32c0-.61-.3-1-.93-1a1.33,1.33,0,0,0-1.21.79v3.55h-.91v-7h.91v2.47h0a1.89,1.89,0,0,1,1.43-.62A1.49,1.49,0,0,1,297.37,106.34Z" style="fill:#231f20"/><path d="M302.55,109.42a2.62,2.62,0,0,1-1.68.49c-1.5,0-2.29-.79-2.29-2.63s1-2.62,2.22-2.62a1.8,1.8,0,0,1,1.9,2,7.17,7.17,0,0,1,0,.88h-3.18c.06,1.12.53,1.59,1.5,1.59a1.81,1.81,0,0,0,1.16-.41Zm-3.05-2.54h2.32a2.36,2.36,0,0,0,0-.25c0-.78-.34-1.22-1.08-1.22S299.55,105.84,299.5,106.88Z" style="fill:#231f20"/><path d="M67.27,115.28c1.37,0,2.18.54,2.18,1.85A1.65,1.65,0,0,1,68,118.9v0a1.85,1.85,0,0,1,.8.87L70,121.75H68.84l-1.15-2.07a.9.9,0,0,0-.88-.53h-.38v2.6h-.92v-6.47Zm-.84,3.1h.75c.85,0,1.32-.36,1.32-1.17s-.48-1.12-1.36-1.12h-.71Z" style="fill:#231f20"/><path d="M74.68,121.34a2.6,2.6,0,0,1-1.68.49c-1.49,0-2.29-.79-2.29-2.63s1-2.62,2.23-2.62a1.8,1.8,0,0,1,1.9,2,7.4,7.4,0,0,1,0,.88H71.62c0,1.12.52,1.59,1.49,1.59a1.86,1.86,0,0,0,1.17-.41Zm-3-2.54H74a2.36,2.36,0,0,0,0-.25c0-.78-.34-1.22-1.08-1.22S71.68,117.76,71.64,118.8Z" style="fill:#231f20"/><path d="M79.53,118.18v2.22c0,.4.13.65.45.65h.14v.66a.89.89,0,0,1-.39.09.91.91,0,0,1-.92-.6h0a1.71,1.71,0,0,1-1.45.65,1.37,1.37,0,0,1-1.47-1.36c0-1.15,1.09-1.69,2.82-1.64v-.51c0-.75-.37-1-1-1a1.16,1.16,0,0,0-1.07.6l-.65-.51a2,2,0,0,1,1.74-.87C78.87,116.59,79.53,117.06,79.53,118.18Zm-.86,1.34c-1.12-.06-1.92.22-1.92.89a.73.73,0,0,0,.8.72,1.35,1.35,0,0,0,1.12-.6Z" style="fill:#231f20"/><path d="M84.12,114.75H85v7h-.69l-.17-.49h0a1.62,1.62,0,0,1-1.3.59c-1.13,0-1.88-.74-1.88-2.4,0-1.93,1-2.78,2.36-2.78a3.45,3.45,0,0,1,.82.09Zm0,5.64v-2.81a2.16,2.16,0,0,0-.74-.14c-1,0-1.51.52-1.51,1.91s.54,1.74,1.17,1.74A1.15,1.15,0,0,0,84.13,120.39Z" style="fill:#231f20"/><path d="M86.24,122.8a1.53,1.53,0,0,0,.5.1c.58,0,.91-.32,1.08-1L86,116.68h1l.75,2.26c.27.81.42,1.38.54,1.83h0c.08-.4.19-.89.47-1.83l.7-2.26h1l-1.77,5.4a1.91,1.91,0,0,1-1.9,1.61,1.66,1.66,0,0,1-.65-.11Z" style="fill:#231f20"/><path d="M90.82,119.34v-.79h2.79v.79Z" style="fill:#231f20"/><path d="M97.87,119.57h0l1.67-4.29H101v6.47h-.9v-5.37h0c-.37.9-1.4,3.59-1.77,4.49h-.9l-1.76-4.49H95.6v5.37h-.87v-6.47H96.2Z" style="fill:#231f20"/><path d="M106.06,118.18v2.22c0,.4.13.65.46.65h.13v.66a.85.85,0,0,1-.38.09.93.93,0,0,1-.93-.6h0a1.73,1.73,0,0,1-1.45.65,1.38,1.38,0,0,1-1.48-1.36c0-1.15,1.09-1.69,2.83-1.64v-.51c0-.75-.37-1-1-1a1.14,1.14,0,0,0-1.07.6l-.66-.51a2,2,0,0,1,1.74-.87C105.4,116.59,106.06,117.06,106.06,118.18Zm-.85,1.34c-1.12-.06-1.92.22-1.92.89a.72.72,0,0,0,.8.72,1.37,1.37,0,0,0,1.12-.6Z" style="fill:#231f20"/><path d="M110.65,114.75h.91v7h-.7l-.17-.49h0a1.59,1.59,0,0,1-1.3.59c-1.12,0-1.87-.74-1.87-2.4,0-1.93,1-2.78,2.35-2.78a3.45,3.45,0,0,1,.82.09Zm0,5.64v-2.81a2.12,2.12,0,0,0-.74-.14c-1,0-1.51.52-1.51,1.91s.54,1.74,1.17,1.74A1.13,1.13,0,0,0,110.66,120.39Z" style="fill:#231f20"/><path d="M116.76,121.34a2.6,2.6,0,0,1-1.68.49c-1.49,0-2.28-.79-2.28-2.63s1-2.62,2.22-2.62a1.8,1.8,0,0,1,1.9,2,7.4,7.4,0,0,1,0,.88H113.7c.06,1.12.53,1.59,1.5,1.59a1.83,1.83,0,0,0,1.16-.41Zm-3-2.54H116v-.25c0-.78-.34-1.22-1.08-1.22S113.76,117.76,113.72,118.8Z" style="fill:#231f20"/><path d="M125.42,115.8l-.6.68a1.77,1.77,0,0,0-1.3-.46c-.91,0-1.86.49-1.86,2.44s.64,2.59,1.85,2.59a2.11,2.11,0,0,0,1-.2v-2.4h.93v2.81a3.18,3.18,0,0,1-2.11.59c-1.73,0-2.61-1.1-2.61-3.3s1.26-3.36,2.86-3.36A2.48,2.48,0,0,1,125.42,115.8Z" style="fill:#231f20"/><path d="M130.29,118.18v2.22c0,.4.13.65.45.65h.14v.66a.89.89,0,0,1-.39.09.91.91,0,0,1-.92-.6h0a1.71,1.71,0,0,1-1.45.65,1.37,1.37,0,0,1-1.47-1.36c0-1.15,1.09-1.69,2.82-1.64v-.51c0-.75-.37-1-1-1a1.16,1.16,0,0,0-1.07.6l-.65-.51a2,2,0,0,1,1.74-.87C129.63,116.59,130.29,117.06,130.29,118.18Zm-.86,1.34c-1.12-.06-1.92.22-1.92.89a.73.73,0,0,0,.8.72,1.35,1.35,0,0,0,1.12-.6Z" style="fill:#231f20"/><path d="M134.68,117.56a2.69,2.69,0,0,0-.57-.07,1.48,1.48,0,0,0-1.23.58v3.68H132v-5.07h.7l.2.62h0a1.42,1.42,0,0,1,1.29-.72,1.9,1.9,0,0,1,.48,0Z" style="fill:#231f20"/><path d="M140.63,116.57c1,0,1.56.56,1.56,1.69v3.49h-.91v-3.32c0-.73-.35-1.07-.9-1.07a1.16,1.16,0,0,0-1.07.77v3.62h-.91V118.5c0-.74-.33-1.14-.93-1.14a1.09,1.09,0,0,0-1,.82v3.57h-.91v-5.07h.72l.17.51h0a1.61,1.61,0,0,1,1.32-.62,1.29,1.29,0,0,1,1.32.77h0A1.65,1.65,0,0,1,140.63,116.57Z" style="fill:#231f20"/><path d="M147.37,121.34a2.62,2.62,0,0,1-1.68.49c-1.5,0-2.29-.79-2.29-2.63s1-2.62,2.23-2.62a1.81,1.81,0,0,1,1.9,2,7.4,7.4,0,0,1-.05.88h-3.17c.05,1.12.52,1.59,1.49,1.59a1.81,1.81,0,0,0,1.16-.41Zm-3.05-2.54h2.32a2.36,2.36,0,0,0,0-.25c0-.78-.34-1.22-1.08-1.22S144.37,117.76,144.32,118.8Z" style="fill:#231f20"/><path d="M152.79,121.75h-.91v-3.3c0-.69-.35-1.09-1-1.09a1.23,1.23,0,0,0-1.17.82v3.57h-.91v-5.07h.7l.19.51h0a1.91,1.91,0,0,1,1.42-.62,1.5,1.5,0,0,1,1.63,1.68Z" style="fill:#231f20"/><path d="M154.41,120.32V117.4h-.72v-.58l.72-.18.3-1.28h.61v1.32h1.36v.72h-1.36v2.9c0,.5.26.72.67.72a1.31,1.31,0,0,0,.76-.19l.24.71a2.21,2.21,0,0,1-1.22.26C154.92,121.8,154.41,121.36,154.41,120.32Z" style="fill:#231f20"/><path d="M163.53,120.08c0-1.34-3.05-1.06-3.05-3.1a1.89,1.89,0,0,1,2.08-1.79,2.55,2.55,0,0,1,1.75.61l-.57.71a1.85,1.85,0,0,0-1.25-.49c-.67,0-1.07.38-1.07.9,0,1.35,3.06,1.09,3.06,3.11,0,1-.79,1.82-2.25,1.82a3.11,3.11,0,0,1-2.09-.71l.54-.77a2.5,2.5,0,0,0,1.66.65C163.12,121,163.53,120.61,163.53,120.08Z" style="fill:#231f20"/><path d="M169.37,121.34a2.62,2.62,0,0,1-1.68.49c-1.49,0-2.29-.79-2.29-2.63s1-2.62,2.23-2.62a1.81,1.81,0,0,1,1.9,2,7.4,7.4,0,0,1-.05.88h-3.17c.05,1.12.52,1.59,1.49,1.59a1.81,1.81,0,0,0,1.16-.41Zm-3.05-2.54h2.32a2.36,2.36,0,0,0,0-.25c0-.78-.34-1.22-1.08-1.22S166.37,117.76,166.32,118.8Z" style="fill:#231f20"/><path d="M172.76,116.58a1.92,1.92,0,0,1,1.54.6l-.61.63a1.24,1.24,0,0,0-1-.44c-.75,0-1.24.49-1.24,1.82s.46,1.87,1.24,1.87a1.16,1.16,0,0,0,1-.43l.57.59a1.91,1.91,0,0,1-1.6.62c-1.28,0-2.11-.73-2.11-2.56S171.48,116.58,172.76,116.58Z" style="fill:#231f20"/><path d="M175.46,120.32V117.4h-.72v-.58l.72-.18.29-1.28h.61v1.32h1.36v.72h-1.36v2.9c0,.5.26.72.67.72a1.31,1.31,0,0,0,.76-.19l.24.71a2.18,2.18,0,0,1-1.22.26C176,121.8,175.46,121.36,175.46,120.32Z" style="fill:#231f20"/><path d="M178.67,119.23c0-1.57.61-2.65,2.2-2.65s2.14,1,2.14,2.61-.61,2.65-2.2,2.65S178.67,120.79,178.67,119.23Zm2.2,1.85c.88,0,1.19-.6,1.19-1.84s-.35-1.9-1.25-1.9-1.2.6-1.2,1.84S180,121.08,180.87,121.08Z" style="fill:#231f20"/><path d="M187,117.56a2.86,2.86,0,0,0-.57-.07,1.48,1.48,0,0,0-1.23.58v3.68h-.91v-5.07H185l.19.62h0a1.41,1.41,0,0,1,1.28-.72,2,2,0,0,1,.49,0Z" style="fill:#231f20"/><path d="M191.09,114.63a.6.6,0,0,1,.61.62.61.61,0,1,1-.61-.62Zm-.43,2.05h.92v5.07h-.92Z" style="fill:#231f20"/><path d="M197.2,121.75h-.92v-3.3c0-.69-.34-1.09-1-1.09a1.23,1.23,0,0,0-1.16.82v3.57h-.91v-5.07h.7l.18.51h0a1.89,1.89,0,0,1,1.42-.62,1.5,1.5,0,0,1,1.63,1.68Z" style="fill:#231f20"/><path d="M205.78,119.88c0,1-.57,1.87-2.3,1.87h-2v-6.47h2.08c1,0,1.91.42,1.91,1.66a1.39,1.39,0,0,1-.9,1.44v0A1.36,1.36,0,0,1,205.78,119.88Zm-2.38-3.8h-1v2h1c.79,0,1.14-.34,1.14-1S204.14,116.08,203.4,116.08Zm1.43,3.85c0-.82-.59-1.05-1.28-1.05h-1.16V121h1.21C204.46,121,204.83,120.6,204.83,119.93Z" style="fill:#231f20"/><path d="M210.51,118.18v2.22c0,.4.13.65.45.65h.14v.66a.89.89,0,0,1-.39.09.92.92,0,0,1-.92-.6h0a1.71,1.71,0,0,1-1.45.65,1.37,1.37,0,0,1-1.47-1.36c0-1.15,1.09-1.69,2.82-1.64v-.51c0-.75-.37-1-1-1a1.16,1.16,0,0,0-1.07.6l-.65-.51a2,2,0,0,1,1.74-.87C209.85,116.59,210.51,117.06,210.51,118.18Zm-.86,1.34c-1.12-.06-1.92.22-1.92.89a.73.73,0,0,0,.8.72,1.35,1.35,0,0,0,1.12-.6Z" style="fill:#231f20"/><path d="M216.17,121.75h-.91v-3.3c0-.69-.35-1.09-1-1.09a1.23,1.23,0,0,0-1.17.82v3.57h-.91v-5.07h.7l.19.51h0a1.91,1.91,0,0,1,1.42-.62,1.5,1.5,0,0,1,1.63,1.68Z" style="fill:#231f20"/><path d="M221.43,121.72a1.91,1.91,0,0,1-2.16,2,2.35,2.35,0,0,1-1.78-.58l.53-.71a1.71,1.71,0,0,0,1.32.51c.85,0,1.2-.38,1.2-1.24v-.41h0a1.8,1.8,0,0,1-1.16.37c-1.06,0-2-.61-2-2.37a2.37,2.37,0,0,1,2.47-2.68,3.66,3.66,0,0,1,1.58.28Zm-1.65-4.33c-.9,0-1.48.6-1.48,1.83s.58,1.69,1.26,1.69a1.24,1.24,0,0,0,1-.44v-3A1.9,1.9,0,0,0,219.78,117.39Z" style="fill:#231f20"/><path d="M223.89,114.75v5.68c0,.43.16.6.5.6a1,1,0,0,0,.36-.07v.75a1.93,1.93,0,0,1-.65.12,1,1,0,0,1-1.12-1.16v-5.92Z" style="fill:#231f20"/><path d="M229.13,118.18v2.22c0,.4.13.65.45.65h.14v.66a.89.89,0,0,1-.39.09.92.92,0,0,1-.92-.6h0a1.7,1.7,0,0,1-1.44.65,1.37,1.37,0,0,1-1.48-1.36c0-1.15,1.09-1.69,2.82-1.64v-.51c0-.75-.37-1-1-1a1.17,1.17,0,0,0-1.07.6l-.65-.51a2,2,0,0,1,1.74-.87C228.47,116.59,229.13,117.06,229.13,118.18Zm-.86,1.34c-1.11-.06-1.92.22-1.92.89a.73.73,0,0,0,.81.72,1.35,1.35,0,0,0,1.11-.6Z" style="fill:#231f20"/><path d="M233.72,114.75h.9v7h-.69l-.17-.49h0a1.6,1.6,0,0,1-1.3.59c-1.13,0-1.88-.74-1.88-2.4,0-1.93,1-2.78,2.36-2.78a3.45,3.45,0,0,1,.82.09Zm0,5.64v-2.81a2.16,2.16,0,0,0-.74-.14c-1,0-1.51.52-1.51,1.91s.54,1.74,1.17,1.74A1.13,1.13,0,0,0,233.73,120.39Z" style="fill:#231f20"/><path d="M239.83,121.34a2.6,2.6,0,0,1-1.68.49c-1.49,0-2.29-.79-2.29-2.63s1-2.62,2.23-2.62a1.8,1.8,0,0,1,1.9,2,7.4,7.4,0,0,1-.05.88h-3.17c0,1.12.52,1.59,1.49,1.59a1.86,1.86,0,0,0,1.17-.41Zm-3-2.54h2.31a2.36,2.36,0,0,0,0-.25c0-.78-.34-1.22-1.08-1.22S236.83,117.76,236.79,118.8Z" style="fill:#231f20"/><path d="M241.1,118.05a1.58,1.58,0,0,1,1.78-1.46,2.17,2.17,0,0,1,1.59.59l-.59.61a1.46,1.46,0,0,0-1-.43c-.57,0-.85.3-.85.65,0,1,2.52.62,2.52,2.34,0,.69-.57,1.49-1.87,1.49a2.64,2.64,0,0,1-1.88-.68l.56-.66a1.94,1.94,0,0,0,1.36.58c.63,0,.92-.31.92-.69C243.61,119.36,241.1,119.76,241.1,118.05Z" style="fill:#231f20"/><path d="M249.74,118.26v3.49h-.91v-3.32a.9.9,0,0,0-.94-1,1.33,1.33,0,0,0-1.21.79v3.55h-.91v-7h.91v2.47h0a1.91,1.91,0,0,1,1.43-.62A1.49,1.49,0,0,1,249.74,118.26Z" style="fill:#231f20"/><path d="M51.57,71.35a1.13,1.13,0,1,1,0-2.25,23.27,23.27,0,0,0,6.6-1,16.85,16.85,0,0,0,3.32-1.42,1.13,1.13,0,0,1,1.12,2,19.38,19.38,0,0,1-3.77,1.62,25.3,25.3,0,0,1-7.25,1.08Zm-5.13-.42-.21,0-.15,0a29.18,29.18,0,0,1-4.28-1.17,20.77,20.77,0,0,1-3.2-1.45,8.9,8.9,0,0,1-2-1.4,4,4,0,0,1-.81-1.25,1.13,1.13,0,0,1,2.09-.86,1.79,1.79,0,0,0,.35.55,6.5,6.5,0,0,0,1.45,1,18.13,18.13,0,0,0,2.85,1.29,26.18,26.18,0,0,0,3.94,1.07l.13,0a1.13,1.13,0,0,1-.21,2.24ZM66,65.55a1.13,1.13,0,0,1-.74-.27,1.14,1.14,0,0,1-.12-1.6,13.76,13.76,0,0,0,2-3.06,14.59,14.59,0,0,0,1.28-6.24,1.13,1.13,0,1,1,2.26,0,16.82,16.82,0,0,1-1.5,7.2,15.94,15.94,0,0,1-2.32,3.58A1.12,1.12,0,0,1,66,65.55Zm-14.17-.3a1.13,1.13,0,0,1,0-2.25,12.64,12.64,0,0,0,3.7-.57,8.92,8.92,0,0,0,3-1.56,6.59,6.59,0,0,0,1.62-2,1.13,1.13,0,0,1,2,1.06,8.62,8.62,0,0,1-2.18,2.66,11.14,11.14,0,0,1-3.69,2,14.7,14.7,0,0,1-4.36.67Zm-5.11-.57a1,1,0,0,1-.29,0l-.57-.16a27.54,27.54,0,0,1-4.17-1.63,26.73,26.73,0,0,1-2.84-1.6,3.13,3.13,0,0,0-1-.51,1.13,1.13,0,0,1-1.5.36A1.14,1.14,0,0,1,36,59.56a2,2,0,0,1,.76-.78,2.22,2.22,0,0,1,1.15-.3,4.23,4.23,0,0,1,2.26.89,24.87,24.87,0,0,0,2.6,1.47,25.24,25.24,0,0,0,3.83,1.48l.48.14a1.13,1.13,0,0,1-.29,2.22Zm-8.92-3.94Zm24.24-5.19a1.14,1.14,0,0,1-1.13-1,5.71,5.71,0,0,0-.83-2.64,9.31,9.31,0,0,0-2.45-2.53,22.27,22.27,0,0,0-2.9-1.75,1.13,1.13,0,1,1,1-2A25.86,25.86,0,0,1,59,47.51a11.31,11.31,0,0,1,3,3.15,7.81,7.81,0,0,1,1.18,3.67,1.13,1.13,0,0,1-1,1.22Zm6.66-5.06a1.15,1.15,0,0,1-1.06-.72c-.06-.16-.12-.32-.19-.47a12.59,12.59,0,0,0-2.55-3.73,17.54,17.54,0,0,0-3.69-2.81l-.36-.21a1.13,1.13,0,1,1,1.11-2l.38.22A19.76,19.76,0,0,1,66.52,44a14.81,14.81,0,0,1,3,4.4l.24.58a1.12,1.12,0,0,1-.65,1.46A1.14,1.14,0,0,1,68.72,50.49Zm-18.14-5a1.14,1.14,0,0,1-.47-.1l-.61-.29A49.36,49.36,0,0,1,45,42.73a19.73,19.73,0,0,1-4.08-3.21l-.21-.21a1.13,1.13,0,1,1,1.65-1.55l.17.19a17.81,17.81,0,0,0,3.63,2.84,44.91,44.91,0,0,0,4.34,2.29l.61.29a1.13,1.13,0,0,1-.48,2.15Zm6.25-5.16a1.18,1.18,0,0,1-.48-.1l-4-1.87A25.85,25.85,0,0,1,48.25,36a12.81,12.81,0,0,1-1.61-1.38A1.13,1.13,0,0,1,48.25,33a10.73,10.73,0,0,0,1.33,1.14,22.85,22.85,0,0,0,3.74,2.17l4,1.87a1.13,1.13,0,0,1-.47,2.15Zm-18.1-5a1.13,1.13,0,0,1-1-.72,15.24,15.24,0,0,1-1-5.6,15.5,15.5,0,0,1,1.08-5.9A1.13,1.13,0,0,1,39.9,24,13.29,13.29,0,0,0,39,29a12.92,12.92,0,0,0,.79,4.77,1.13,1.13,0,0,1-.63,1.47A1.25,1.25,0,0,1,38.73,35.34Zm6.44-4.9a1.13,1.13,0,0,1-1.12-1A9.2,9.2,0,0,1,44,28.36,9,9,0,0,1,44.61,25a7.5,7.5,0,0,1,1.9-2.78,9.26,9.26,0,0,1,3.12-1.83,8.79,8.79,0,0,1,.95-.29,1.13,1.13,0,1,1,.55,2.19c-.25.07-.5.14-.73.23A6.82,6.82,0,0,0,48,23.92a5.14,5.14,0,0,0-1.33,1.95,6.68,6.68,0,0,0-.46,2.49,7.33,7.33,0,0,0,0,.83,1.13,1.13,0,0,1-1,1.25Zm20.24-4.6a4.15,4.15,0,0,1-2-.74c-.63-.37-1.41-.8-2.33-1.27a19.23,19.23,0,0,0-3.16-1.26,11.73,11.73,0,0,0-2.06-.43,1.13,1.13,0,1,1,.27-2.25,14.39,14.39,0,0,1,2.47.53,21.86,21.86,0,0,1,3.52,1.4c1,.49,1.78.94,2.44,1.34a5.94,5.94,0,0,0,.77.39,1.13,1.13,0,0,1,1.55,1.63,2.39,2.39,0,0,1-.23.22A1.91,1.91,0,0,1,65.41,25.84Zm.92-5.33a1.13,1.13,0,0,1-1.09-.83,1.69,1.69,0,0,0-.08-.22h0a2.42,2.42,0,0,0-.32-.36,6.9,6.9,0,0,0-1.36-.84,19.44,19.44,0,0,0-2.67-1.09,25.33,25.33,0,0,0-3.25-.79l-1-.14A1.13,1.13,0,0,1,56.83,14c.37,0,.75.1,1.11.17A25,25,0,0,1,61.5,15a19.81,19.81,0,0,1,3,1.23,7.9,7.9,0,0,1,1.92,1.24,3.87,3.87,0,0,1,.71.88,2.62,2.62,0,0,1,.28.7,1.14,1.14,0,0,1-.79,1.39A1.54,1.54,0,0,1,66.33,20.51Zm-24.62-.08a1.13,1.13,0,0,1-.78-1.94c.27-.26.55-.52.84-.75a16.44,16.44,0,0,1,5.57-2.93A21.48,21.48,0,0,1,51.43,14a1.13,1.13,0,0,1,.24,2.24A19.73,19.73,0,0,0,48,17a14.23,14.23,0,0,0-4.8,2.51c-.24.2-.48.41-.7.63A1.14,1.14,0,0,1,41.71,20.43Z" style="fill:#ed0973"/><path d="M95.22,70.82a12.57,12.57,0,0,1-1.87-.12A7.2,7.2,0,0,1,92,70.4a2.2,2.2,0,0,1-1.15-.84,2.14,2.14,0,0,1-.35-1.2V67a1.13,1.13,0,0,1,2.26,0v1.3a5.6,5.6,0,0,0,.9.2,13.31,13.31,0,0,0,3.09,0,5.74,5.74,0,0,0,.88-.2v-1a1.13,1.13,0,0,1,2.26,0v1.14a2.2,2.2,0,0,1-.35,1.21,2.24,2.24,0,0,1-1.15.83,7.21,7.21,0,0,1-1.3.3A12.67,12.67,0,0,1,95.22,70.82Zm3.56-7.63a1.13,1.13,0,0,1-1.13-1.13V51.17a1.13,1.13,0,1,1,2.26,0V62.06A1.12,1.12,0,0,1,98.78,63.19Zm-7.13-.25a1.13,1.13,0,0,1-1.13-1.13V50.92a1.13,1.13,0,1,1,2.26,0V61.81A1.14,1.14,0,0,1,91.65,62.94Zm7.13-15.8A1.13,1.13,0,0,1,97.65,46V35.12a1.13,1.13,0,0,1,2.26,0V46A1.12,1.12,0,0,1,98.78,47.14Zm-7.13-.25a1.13,1.13,0,0,1-1.13-1.13V34.87a1.13,1.13,0,0,1,2.26,0V45.76A1.14,1.14,0,0,1,91.65,46.89Zm7.13-15.8A1.13,1.13,0,0,1,97.65,30V20.68h3.87a1.13,1.13,0,1,1,0,2.25H99.91v7A1.12,1.12,0,0,1,98.78,31.09Zm-7.13-.25a1.13,1.13,0,0,1-1.13-1.13V22.93H88.66a1.13,1.13,0,1,1,0-2.25h4.12v9A1.14,1.14,0,0,1,91.65,30.84Zm22.24-7.91h-7.21a1.13,1.13,0,1,1,0-2.25h7.21l.06-.09a2,2,0,0,0,.15-.56,10.27,10.27,0,0,0,.07-1.21,11,11,0,0,0-.07-1.24,2.15,2.15,0,0,0-.17-.62l0-.09h-3.57a1.13,1.13,0,0,1,0-2.26h3.57a2.25,2.25,0,0,1,1.19.33,2.38,2.38,0,0,1,.87,1,3.89,3.89,0,0,1,.38,1.32,12,12,0,0,1,.1,1.55,11.43,11.43,0,0,1-.1,1.53,3.76,3.76,0,0,1-.39,1.3,2.48,2.48,0,0,1-.86,1A2.25,2.25,0,0,1,113.89,22.93Zm0-6.07ZM83.5,22.93h-7a2.22,2.22,0,0,1-2.06-1.33,5.09,5.09,0,0,1-.36-1.22A8.92,8.92,0,0,1,74,18.82c0-.1,0-.2,0-.3a1.12,1.12,0,0,1,1.13-1.1h0a1.14,1.14,0,0,1,1.11,1.16,1.93,1.93,0,0,0,0,.24A6.47,6.47,0,0,0,76.35,20a2.65,2.65,0,0,0,.18.65l0,0h7a1.13,1.13,0,1,1,0,2.25ZM76.56,20.7Zm28.61-3.82H94.27a1.13,1.13,0,1,1,0-2.26h10.9a1.13,1.13,0,0,1,0,2.26Zm-16,0H78.22a1.13,1.13,0,1,1,0-2.26h10.9a1.13,1.13,0,0,1,0,2.26Z" style="fill:#ed0973"/><path d="M129.09,70.82a12.77,12.77,0,0,1-1.87-.12,7.4,7.4,0,0,1-1.33-.3,2.14,2.14,0,0,1-1.14-.84,2.07,2.07,0,0,1-.36-1.2V65.83a1.13,1.13,0,0,1,2.26,0v2.44a6.23,6.23,0,0,0,.9.2,11.2,11.2,0,0,0,1.54.09,10.86,10.86,0,0,0,1.55-.09,6.33,6.33,0,0,0,.89-.2V60.94a1.13,1.13,0,0,1,2.26,0v7.42a2.13,2.13,0,0,1-.36,1.21,2.24,2.24,0,0,1-1.15.83,7.21,7.21,0,0,1-1.3.3A12.58,12.58,0,0,1,129.09,70.82Zm-3.57-9a1.13,1.13,0,0,1-1.13-1.13V49.78a1.13,1.13,0,0,1,2.26,0V60.67A1.13,1.13,0,0,1,125.52,61.8Zm7.14-4.89a1.13,1.13,0,0,1-1.13-1.13V44.89a1.13,1.13,0,1,1,2.26,0V55.78A1.14,1.14,0,0,1,132.66,56.91Zm-7.14-11.16a1.13,1.13,0,0,1-1.13-1.13V33.73a1.13,1.13,0,0,1,2.26,0V44.62A1.13,1.13,0,0,1,125.52,45.75Zm7.14-4.89a1.13,1.13,0,0,1-1.13-1.13V28.84a1.13,1.13,0,1,1,2.26,0V39.73A1.14,1.14,0,0,1,132.66,40.86ZM125.52,29.7a1.13,1.13,0,0,1-1.13-1.13V17.68a1.13,1.13,0,0,1,2.26,0V28.57A1.13,1.13,0,0,1,125.52,29.7Zm7.14-4.89a1.13,1.13,0,0,1-1.13-1.13V16.91a5.45,5.45,0,0,0-.89-.19,9.22,9.22,0,0,0-1.42-.09,1.13,1.13,0,0,1,0-2.26h0a10.78,10.78,0,0,1,1.74.12,6.44,6.44,0,0,1,1.3.3,2.2,2.2,0,0,1,1.15.83,2.1,2.1,0,0,1,.36,1.21v6.85A1.14,1.14,0,0,1,132.66,24.81Zm-1-7.85Z" style="fill:#ed0973"/><path d="M163,70.82a12.53,12.53,0,0,1-1.86-.12,7.2,7.2,0,0,1-1.33-.3,2.2,2.2,0,0,1-1.15-.84,2.07,2.07,0,0,1-.36-1.2V67a1.13,1.13,0,1,1,2.26,0v1.3a6.14,6.14,0,0,0,.91.2,10.94,10.94,0,0,0,1.53.09,11.11,11.11,0,0,0,1.56-.09,5.74,5.74,0,0,0,.88-.2v-1a1.13,1.13,0,0,1,2.26,0v1.14a2.2,2.2,0,0,1-.35,1.21,2.28,2.28,0,0,1-1.15.83,7.34,7.34,0,0,1-1.31.3A12.58,12.58,0,0,1,163,70.82Zm3.57-7.63a1.13,1.13,0,0,1-1.13-1.13V51.17a1.13,1.13,0,0,1,2.26,0V62.06A1.13,1.13,0,0,1,166.53,63.19Zm-7.14-.25a1.14,1.14,0,0,1-1.13-1.13V50.92a1.13,1.13,0,1,1,2.26,0V61.81A1.13,1.13,0,0,1,159.39,62.94Zm7.14-15.8A1.13,1.13,0,0,1,165.4,46V35.12a1.13,1.13,0,0,1,2.26,0V46A1.13,1.13,0,0,1,166.53,47.14Zm-7.14-.25a1.14,1.14,0,0,1-1.13-1.13V34.87a1.13,1.13,0,1,1,2.26,0V45.76A1.13,1.13,0,0,1,159.39,46.89Zm7.14-15.8A1.13,1.13,0,0,1,165.4,30V20.68h3.86a1.13,1.13,0,1,1,0,2.25h-1.6v7A1.13,1.13,0,0,1,166.53,31.09Zm-7.14-.25a1.14,1.14,0,0,1-1.13-1.13V22.93h-1.85a1.13,1.13,0,1,1,0-2.25h4.11v9A1.13,1.13,0,0,1,159.39,30.84Zm22.24-7.91h-7.21a1.13,1.13,0,1,1,0-2.25h7.21s0,0,.06-.09a1.66,1.66,0,0,0,.15-.56,8.49,8.49,0,0,0,.07-1.21,9,9,0,0,0-.07-1.24,2,2,0,0,0-.16-.62l-.05-.09h-3.56a1.13,1.13,0,1,1,0-2.26h3.56a2.25,2.25,0,0,1,1.19.33,2.4,2.4,0,0,1,.88,1,4.13,4.13,0,0,1,.38,1.32,12.1,12.1,0,0,1,.09,1.55,11.56,11.56,0,0,1-.09,1.53,4,4,0,0,1-.39,1.3,2.48,2.48,0,0,1-.86,1A2.26,2.26,0,0,1,181.63,22.93Zm0-6.07Zm-30.37,6.07h-7a2.22,2.22,0,0,1-2.06-1.33,5.09,5.09,0,0,1-.36-1.22,8.92,8.92,0,0,1-.12-1.56v-.3a1.14,1.14,0,0,1,1.13-1.1h0a1.13,1.13,0,0,1,1.1,1.16v.24A6.47,6.47,0,0,0,144.1,20a2.87,2.87,0,0,0,.17.65.08.08,0,0,1,0,0h7a1.13,1.13,0,1,1,0,2.25Zm-6.94-2.23Zm28.6-3.82H162a1.13,1.13,0,1,1,0-2.26h10.89a1.13,1.13,0,0,1,0,2.26Zm-16,0H146a1.13,1.13,0,1,1,0-2.26h10.89a1.13,1.13,0,0,1,0,2.26Z" style="fill:#ed0973"/><path d="M211.19,71.23a26.93,26.93,0,0,1-7.28-.94,1.13,1.13,0,0,1,.61-2.17,25.27,25.27,0,0,0,6.67.85,26.62,26.62,0,0,0,3.67-.24,1.14,1.14,0,0,1,1.28,1,1.13,1.13,0,0,1-1,1.27A29.68,29.68,0,0,1,211.19,71.23ZM220,69.78a1.13,1.13,0,0,1-.37-2.2c.42-.14.82-.3,1.21-.45A19.45,19.45,0,0,0,224,65.56a10.9,10.9,0,0,0,1.56-1.11,2.87,2.87,0,0,0,.4-.47,1.75,1.75,0,0,0,.16-.41,3.34,3.34,0,0,0,.11-.66c0-.3,0-.66,0-1.06,0-.6,0-1.09-.05-1.47a5.08,5.08,0,0,0-.08-.51,4.74,4.74,0,0,0-.87.52,31.36,31.36,0,0,1-2.87,1.83c-.23.14-.48.27-.73.4a1.13,1.13,0,0,1-1-2l.63-.34c1.08-.63,2-1.2,2.68-1.7a4.16,4.16,0,0,1,2.37-1,2.08,2.08,0,0,1,1.08.29,2,2,0,0,1,.82,1.06,5.78,5.78,0,0,1,.24,1.25,16,16,0,0,1,.07,1.69c0,.46,0,.88,0,1.25a7.59,7.59,0,0,1-.18,1.08,4.54,4.54,0,0,1-.38.92,4.21,4.21,0,0,1-.77,1,12,12,0,0,1-1.93,1.41,22,22,0,0,1-3.48,1.76c-.42.17-.87.34-1.33.5A1.13,1.13,0,0,1,220,69.78Zm-20.57-1.41a1.15,1.15,0,0,1-.56-.15A20.53,20.53,0,0,1,193.72,64,22.52,22.52,0,0,1,191,60,1.13,1.13,0,1,1,193,59a19.23,19.23,0,0,0,2.44,3.51A17.93,17.93,0,0,0,200,66.26a1.13,1.13,0,0,1,.42,1.54A1.14,1.14,0,0,1,199.46,68.37Zm12.65-3.45a17.8,17.8,0,0,1-7-1.31,1.13,1.13,0,0,1,.88-2.08,15.62,15.62,0,0,0,6.08,1.14,19,19,0,0,0,3.94-.38,1.13,1.13,0,1,1,.48,2.2A20.91,20.91,0,0,1,212.11,64.92Zm-10.77-4.09a1.17,1.17,0,0,1-.81-.33,15.26,15.26,0,0,1-1.18-1.34A20,20,0,0,1,196,52.21c-.17-.62-.33-1.27-.46-1.93a1.13,1.13,0,1,1,2.21-.45c.12.61.27,1.2.43,1.77a17.65,17.65,0,0,0,3,6.17,12.27,12.27,0,0,0,1,1.14,1.13,1.13,0,0,1,0,1.6A1.16,1.16,0,0,1,201.34,60.83ZM190,55.88a1.11,1.11,0,0,1-1.07-.78A38.42,38.42,0,0,1,187.29,44a1.13,1.13,0,0,1,1.11-1.14h0A1.13,1.13,0,0,1,189.55,44a35.94,35.94,0,0,0,1.52,10.41,1.13,1.13,0,0,1-.74,1.42A1,1,0,0,1,190,55.88Zm6-9.81A1.13,1.13,0,0,1,194.88,45c0-.68,0-1.39,0-2.11a35.25,35.25,0,0,1,1.07-9,1.13,1.13,0,1,1,2.18.59,32.87,32.87,0,0,0-1,8.45c0,.68,0,1.36,0,2a1.13,1.13,0,0,1-1.08,1.19ZM188.62,40h-.11a1.13,1.13,0,0,1-1-1.23A36.14,36.14,0,0,1,189.06,31a31.51,31.51,0,0,1,1.22-3.14,1.13,1.13,0,1,1,2.06.93,27.91,27.91,0,0,0-1.13,2.91A33.06,33.06,0,0,0,189.74,39,1.12,1.12,0,0,1,188.62,40Zm10.23-9.53a1.12,1.12,0,0,1-.53-.13,1.14,1.14,0,0,1-.47-1.53,19,19,0,0,1,1.59-2.53,14.91,14.91,0,0,1,5.44-4.55,15.33,15.33,0,0,1,1.45-.61,1.13,1.13,0,1,1,.77,2.12c-.42.16-.84.33-1.23.52a12.69,12.69,0,0,0-4.62,3.88,17.06,17.06,0,0,0-1.4,2.22A1.13,1.13,0,0,1,198.85,30.46Zm27.67-3.1a1.13,1.13,0,0,1-.81-1.91h0a1.78,1.78,0,0,0,.08-.16,3.28,3.28,0,0,0,.18-.7,10.47,10.47,0,0,0,.07-1.25,9.58,9.58,0,0,0-.06-1.16,5.82,5.82,0,0,0-.13-.77,2.18,2.18,0,0,0-.16-.42,4.55,4.55,0,0,0-.55-.61,9.84,9.84,0,0,0-1.79-1.26c-.34-.2-.69-.39-1.07-.58a1.14,1.14,0,0,1-.51-1.51,1.12,1.12,0,0,1,1.51-.51c.43.21.84.43,1.23.67a11.39,11.39,0,0,1,2.23,1.6,6.2,6.2,0,0,1,.91,1.08,4.09,4.09,0,0,1,.38,1,9.3,9.3,0,0,1,.2,1.09c0,.41.07.88.07,1.42a11.61,11.61,0,0,1-.1,1.57,5.13,5.13,0,0,1-.33,1.26,2.81,2.81,0,0,1-.53.84A1.14,1.14,0,0,1,226.52,27.36Zm-4.42-2a1.09,1.09,0,0,1-.59-.17l-.53-.32a21.37,21.37,0,0,0-3.8-1.69,16.6,16.6,0,0,0-5.28-.74h-.13a1.13,1.13,0,0,1,0-2.26h.13a18.61,18.61,0,0,1,6,.87,22.81,22.81,0,0,1,4.21,1.88l.56.34a1.12,1.12,0,0,1,.38,1.55A1.14,1.14,0,0,1,222.1,25.36ZM193.88,25a1.09,1.09,0,0,1-.66-.22,1.12,1.12,0,0,1-.25-1.57c.36-.5.75-1,1.14-1.44a21.94,21.94,0,0,1,7.64-5.75,1.13,1.13,0,1,1,.93,2.06,19.54,19.54,0,0,0-6.85,5.16,16.33,16.33,0,0,0-1,1.3A1.14,1.14,0,0,1,193.88,25ZM217.93,17a1.24,1.24,0,0,1-.27,0l-1.34-.29a21.7,21.7,0,0,0-4.3-.42,25.29,25.29,0,0,0-4.68.43,1.13,1.13,0,0,1-.43-2.21A26.45,26.45,0,0,1,212,14a24.66,24.66,0,0,1,4.74.46c.49.1,1,.2,1.43.32a1.13,1.13,0,0,1-.26,2.22Z" style="fill:#ed0973"/><path d="M274.44,70.82a12.41,12.41,0,0,1-1.91-.12,7,7,0,0,1-1.28-.3,2.24,2.24,0,0,1-1.15-.83,2.13,2.13,0,0,1-.36-1.21V65.79a1.13,1.13,0,1,1,2.26,0v2.48a5.74,5.74,0,0,0,.87.2,10.87,10.87,0,0,0,1.57.09,10.54,10.54,0,0,0,1.51-.09,5.66,5.66,0,0,0,.89-.2v-3a1.13,1.13,0,0,1,2.26,0v3.08a2.13,2.13,0,0,1-.36,1.21,2.2,2.2,0,0,1-1.15.83,7,7,0,0,1-1.3.3A12.2,12.2,0,0,1,274.44,70.82Zm2.5-2.59Zm-5,0Zm-29,2.59A12.67,12.67,0,0,1,241,70.7a7.2,7.2,0,0,1-1.33-.3,2.2,2.2,0,0,1-1.15-.84,2.14,2.14,0,0,1-.35-1.2V66a1.13,1.13,0,1,1,2.26,0v2.29a5.6,5.6,0,0,0,.9.2,11.1,11.1,0,0,0,1.54.09,10.86,10.86,0,0,0,1.55-.09,6.33,6.33,0,0,0,.89-.2v0a1.13,1.13,0,1,1,2.25,0v.14a2.2,2.2,0,0,1-.35,1.21,2.24,2.24,0,0,1-1.15.83,7.21,7.21,0,0,1-1.3.3A12.67,12.67,0,0,1,242.87,70.82Zm2.54-2.59Zm1-4a1.13,1.13,0,0,1-1.13-1.13V52.17a1.13,1.13,0,1,1,2.25,0V63.06A1.13,1.13,0,0,1,246.44,64.19ZM239.3,62a1.13,1.13,0,0,1-1.13-1.13V49.93a1.13,1.13,0,0,1,2.26,0V60.82A1.14,1.14,0,0,1,239.3,62Zm31.57-.19a1.13,1.13,0,0,1-1.13-1.13V49.74a1.13,1.13,0,0,1,2.26,0V60.63A1.12,1.12,0,0,1,270.87,61.76Zm7.1-.51a1.14,1.14,0,0,1-1.13-1.13V49.23a1.13,1.13,0,0,1,2.26,0V60.12A1.14,1.14,0,0,1,278,61.25ZM246.44,48.14A1.13,1.13,0,0,1,245.31,47v-3.6h9.55a1.13,1.13,0,0,1,0,2.26h-7.3V47A1.13,1.13,0,0,1,246.44,48.14ZM239.3,45.9a1.13,1.13,0,0,1-1.13-1.13V33.88a1.13,1.13,0,0,1,2.26,0V44.77A1.14,1.14,0,0,1,239.3,45.9Zm31.57-.19a1,1,0,0,1-.3,0H260a1.13,1.13,0,1,1,0-2.26h12v1.17A1.12,1.12,0,0,1,270.87,45.71Zm7.1-.51a1.14,1.14,0,0,1-1.13-1.13V33.18a1.13,1.13,0,0,1,2.26,0V44.07A1.14,1.14,0,0,1,278,45.2Zm-6-5.75h-3.11a1.13,1.13,0,1,1,0-2.26h.85V29.41a1.13,1.13,0,0,1,2.26,0Zm-8.27,0H252.84a1.13,1.13,0,1,1,0-2.26h10.89a1.13,1.13,0,0,1,0,2.26Zm-16.05,0h-2.37V28.67a1.13,1.13,0,1,1,2.25,0v8.52h.12a1.13,1.13,0,0,1,0,2.26Zm-8.38-9.6a1.13,1.13,0,0,1-1.13-1.13V17.82a1.13,1.13,0,0,1,2.26,0v10.9A1.14,1.14,0,0,1,239.3,29.85Zm38.67-.7A1.14,1.14,0,0,1,276.84,28V17.13a1.13,1.13,0,0,1,2.26,0V28A1.14,1.14,0,0,1,278,29.15Zm-7.1-3.77a1.13,1.13,0,0,1-1.13-1.13V16.83a2.1,2.1,0,0,1,.36-1.21,2.2,2.2,0,0,1,1.15-.83,7.23,7.23,0,0,1,1.27-.3,11.2,11.2,0,0,1,1.16-.11,1.13,1.13,0,0,1,.09,2.26,6.82,6.82,0,0,0-.9.08,5.58,5.58,0,0,0-.87.19v7.34A1.12,1.12,0,0,1,270.87,25.38Zm1-8.42Zm-25.46,7.68a1.12,1.12,0,0,1-1.13-1.13v-6.6a5.45,5.45,0,0,0-.89-.19,10.86,10.86,0,0,0-1.55-.09h0a1.13,1.13,0,0,1,0-2.26v0h0a12.72,12.72,0,0,1,1.9.12,6.61,6.61,0,0,1,1.3.3,2.24,2.24,0,0,1,1.15.83,2.17,2.17,0,0,1,.35,1.21v6.68A1.12,1.12,0,0,1,246.44,24.64Z" style="fill:#ed0973"/></svg>